PathFileType        4      (X/Y/Z)      C:\Users\pc\Desktop\IMUTRC\Sujet_07\Sujet_07_velo_100.trc         
DataRate	CameraRate	NumFrames	NumMarkers	Units	OrigDataRate	OrigDataStartFrame	OrigNumFrames
60.0	60.0	4	64	mm	60.0	350	933
Frame#	Time	pHipOrigin			pRightASI			pLeftASI			pRightCSI			pLeftCSI			pRightIschialTub			pLeftIschialTub			pSacrum			pL5SpinalProcess			pL3SpinalProcess			pT12SpinalProcess			pIJ			pT4SpinalProcess			pT8SpinalProcess			pPX			pC7SpinalProcess			pTopOfHead			pRightAuricularis			pLeftAuricularis			pBackOfHead			pRightAcromion			pLeftAcromion			pRightArmLatEpicondyle			pRightArmMedEpicondyle			pLeftArmLatEpicondyle			pLeftArmMedEpicondyle			pRightUlnarStyloid			pRightRadialStyloid			pRightOlecranon			pLeftUlnarStyloid			pLeftRadialStyloid			pLeftOlecranon			pRightTopOfHand			pRightPinky			pRightBallHand			pLeftTopOfHand			pLeftPinky			pLeftBallHand			pRightGreaterTrochanter			pRightKneeLatEpicondyle			pRightKneeMedEpicondyle			pRightPatella			pLeftGreaterTrochanter			pLeftKneeLatEpicondyle			pLeftKneeMedEpicondyle			pLeftPatella			pRightTibialTub			pRightLatMalleolus			pRightMedMalleolus			pLeftTibialTub			pLeftLatMalleolus			pLeftMedMalleolus			pRightHeelFoot			pRightFirstMetatarsal			pRightFifthMetatarsal			pRightPivotFoot			pRightHeelCenter			pRightToe			pLeftHeelFoot			pLeftFirstMetatarsal			pLeftFifthMetatarsal			pLeftPivotFoot			pLeftHeelCenter			pLeftToe			
		X1	Y1	Z1	X2	Y2	Z2	X3	Y3	Z3	X4	Y4	Z4	X5	Y5	Z5	X6	Y6	Z6	X7	Y7	Z7	X8	Y8	Z8	X9	Y9	Z9	X10	Y10	Z10	X11	Y11	Z11	X12	Y12	Z12	X13	Y13	Z13	X14	Y14	Z14	X15	Y15	Z15	X16	Y16	Z16	X17	Y17	Z17	X18	Y18	Z18	X19	Y19	Z19	X20	Y20	Z20	X21	Y21	Z21	X22	Y22	Z22	X23	Y23	Z23	X24	Y24	Z24	X25	Y25	Z25	X26	Y26	Z26	X27	Y27	Z27	X28	Y28	Z28	X29	Y29	Z29	X30	Y30	Z30	X31	Y31	Z31	X32	Y32	Z32	X33	Y33	Z33	X34	Y34	Z34	X35	Y35	Z35	X36	Y36	Z36	X37	Y37	Z37	X38	Y38	Z38	X39	Y39	Z39	X40	Y40	Z40	X41	Y41	Z41	X42	Y42	Z42	X43	Y43	Z43	X44	Y44	Z44	X45	Y45	Z45	X46	Y46	Z46	X47	Y47	Z47	X48	Y48	Z48	X49	Y49	Z49	X50	Y50	Z50	X51	Y51	Z51	X52	Y52	Z52	X53	Y53	Z53	X54	Y54	Z54	X55	Y55	Z55	X56	Y56	Z56	X57	Y57	Z57	X58	Y58	Z58	X59	Y59	Z59	X60	Y60	Z60	X61	Y61	Z61	X62	Y62	Z62	X63	Y63	Z63	X64	Y64	Z64	
350	5.817	0.0	1249.97763	7.653905517926474E-14	129.9977800439433	1314.06191	122.2141400927268	76.58464583310118	1324.16094	-156.85645766259935	109.90106936520193	1397.67594	103.4087040533189	65.8925984397931	1405.91853	-126.15904834045536	-64.76158807204945	1215.37361	70.73464091963633	-86.71510984163837	1219.45777	-44.062823970366274	-54.89432114409894	1297.42822	12.208313268581952	22.40103149010404	1380.29967	-0.18578468281047908	110.48519094137481	1465.62161	-13.296324194409786	193.97020169818146	1540.69601	-25.71812449563321	458.89902079544356	1509.73061	-68.00333956131512	370.8956818796332	1639.68135	-52.35952532342809	285.6862279735971	1602.99811	-39.475661872975294	344.62012065835427	1454.70575	-50.809398290786554	426.26591984787706	1661.88436	-59.74857071160575	701.0314801761923	1649.40909	-73.03184137037938	600.4181519777133	1627.8744	-1.3884050120112332	598.5717280787542	1645.10215	-145.22028500670484	592.3815824204469	1692.55274	-66.47871822026458	441.5468185995533	1590.00304	126.3092962651752	399.9156937681083	1629.13677	-242.07938035051995	466.759875116283	1309.0124	113.08460136409366	435.27058194442964	1307.15596	56.833357032175364	397.2007317208054	1327.87382	-269.45618814397005	358.85897282542896	1319.48272	-218.1948736856221	550.8503720114161	1065.37332	63.97042830801019	599.7019331652893	1088.6902	64.30768236044362	426.154467700351	1300.47278	87.32593007052203	442.8877838510608	1068.86343	-236.9051036816204	492.92641739824217	1084.16049	-250.8021593266589	353.40571078790026	1320.52232	-238.7496067696358	731.4595284682835	1026.3881	176.04799301255923	656.8329330841076	1006.04152	120.70072781383692	607.6947118016149	1046.58616	73.03808366867675	586.5187994308836	1000.32369	-383.9484602085905	529.1228886967009	992.97219	-308.44676667029813	495.852312919041	1042.94754	-256.3154990263209	30.459617935426422	1218.56668	173.72797415670533	205.04702572357004	810.37283	163.31447350589417	208.49586959413256	806.80847	77.58826069470742	249.69762486384306	830.42238	118.35366720655	-10.498944851412688	1241.36376	-178.1522940914895	367.26007973652804	1024.23463	-263.93419769546387	391.7350260456466	1020.74452	-181.7218482153774	400.40721715734725	1065.89312	-224.21782383379025	255.7366161552248	764.11037	125.2700874634109	96.90789193819104	383.02053	158.58686750865877	104.83275336219401	379.67894	93.62288487934295	406.96620608912366	970.62067	-226.51890590990894	128.05483918863726	665.05077	-206.797467629782	141.29919371927795	664.15968	-142.55896259030666	25.307006253677137	331.41152	110.47419938116794	172.52774784228043	248.98562	94.29273502173852	158.39171852102183	245.71829	172.3910160234419	184.80732297359717	235.91629	135.2517269989387	62.01251373971198	314.85209	116.40347549775579	262.463442393355	187.20333	147.3318226452818	71.6641208863526	599.18431	-164.67053845492075	232.2691255540825	546.01589	-174.92524648926567	211.15670975868582	554.62977	-251.080469661119	242.46554719635645	543.49114	-218.427606829079	110.05004366295118	591.6843	-176.20630699940486	326.0317601091589	514.1594	-244.95049339017126	
351	5.833	0.0	1249.97763	7.653905517926474E-14	130.02229661611443	1312.87379	122.914256144099	77.44783584287549	1324.38372	-156.27234661611433	110.37574594226021	1396.63633	104.36872010469108	67.1688321147086	1406.1413	-125.25072990773933	-65.13749307693661	1215.37361	70.34612748692031	-86.75951932083943	1220.12609	-44.431444496052364	-54.66427166489787	1297.65099	12.255395882350962	23.06135306716232	1380.22541	0.452684796390579	111.59568118357427	1465.10181	-12.397949715208727	195.33791880581296	1539.87918	-24.671240016432154	460.06652528441896	1508.02268	-67.5007766542852	372.55048003374975	1638.1962	-51.66135980262915	287.22964112771365	1601.80999	-38.58457187297529	345.6391101473297	1453.36911	-50.04959985807053	427.8935369555085	1660.32495	-59.15184623729185	702.5875017581377	1647.70117	-72.9051698079826	602.0656706526288	1626.09221	-1.1231710633834524	600.0534946606997	1643.31997	-144.96500001159197	593.9647987091314	1690.77055	-66.25060927163678	443.64449727935596	1588.59214	126.834430213803	401.07325796382275	1627.72588	-241.41106035051996	468.00625827039954	1307.67576	114.49016241546582	436.23983666583024	1305.67081	58.42189860923366	397.75766172080534	1326.83422	-270.42081920022935	359.2972383462279	1318.22034	-219.39951183485155	552.3122420260776	1064.1852	64.55719516855508	601.1638068402049	1087.65059	64.8944628812426	427.26227980798257	1299.06189	88.82298321486428	444.5624749122073	1068.04659	-236.5384336865075	494.53680607315755	1083.49217	-250.47261433154614	353.93546840166925	1319.3342	-239.8156738723802	733.255553482945	1025.05146	176.05598643550096	658.5175767590232	1004.8534	120.90165937623377	609.2308454765304	1045.47229	73.49624209650564	588.3393496779703	999.4326	-383.2403457342767	530.9162578973026	992.15536	-307.8400932424693	497.5170686869266	1042.27922	-255.78308059849203	28.653635306995966	1217.60133	173.88572782673367	210.25410175320366	812.45205	164.6916132636947	215.72903743813677	809.556	79.02048648921865	255.56235299622114	833.5412	120.96796010869281	-9.900269846525546	1241.66079	-178.1496296171756	366.55925340166925	1021.33858	-261.6807108762061	390.5913241851016	1017.84848	-179.2953384842026	399.83500925520445	1062.84856	-221.89009067478662	259.127760602913	764.25888	126.97073298420985	78.09359884929016	393.26808	159.9859990471271	85.8527168405771	389.40668	95.0120724642963	409.94432053192475	969.28403	-225.14247143559504	150.98047832402318	646.26361	-215.1691394082598	163.48758314303763	644.85272	-150.84182041038238	4.320064201486979	343.73828	113.70578931106513	148.2331513521764	255.6688	97.75827049198325	134.91591122174506	254.55494	176.07204701448555	160.53990752997817	242.97076	138.81870351566846	40.52832906886568	325.99072	119.60521490685403	236.51865775402163	191.73304	151.1308078320399	99.14718237156949	575.27338	-174.69825729485575	263.4330646872785	534.50597	-184.19973243194502	242.42209359862085	542.74856	-260.3821229900293	274.1910399946936	533.46637	-227.6351122509595	138.14901224602528	570.81792	-185.96416822557092	359.72631815458266	511.11484	-253.7071198634239	
352	5.85	0.0	1249.97763	7.653905517926474E-14	129.78957766259947	1312.20548	123.46585719547116	78.2838534664188	1324.45797	-155.78967161611433	110.50169490066232	1396.04227	105.04165010957821	68.13346317096793	1406.1413	-124.69379990773933	-65.48622069559276	1215.44787	70.05904144043528	-86.7024964138095	1220.49738	-44.82725106822349	-54.62714166489788	1297.79951	12.191084835865931	23.5386941185345	1380.15115	0.8140258428756112	112.29313276063255	1464.80478	-11.823791282492696	196.30255852232636	1539.28512	-24.114305016432144	460.87536186147724	1506.61179	-67.11954270077021	373.75512318297916	1637.08233	-51.22310294208425	288.360024276943	1600.99316	-38.017692919460316	346.2722543381569	1452.32951	-49.51255776510049	429.1353051047379	1658.98832	-58.777891762977944	703.730498335196	1646.21601	-73.1027179523248	603.4287727553731	1624.5328	-1.107893161240625	601.047971237758	1641.90908	-144.90530396999418	595.1522047653907	1689.2854	-66.07953689029291	445.0520088613013	1587.62679	127.21832864163186	401.88209454088104	1626.4635	-241.029826397005	469.14392089883006	1306.71042	115.48997294115193	437.13749220129057	1304.55695	59.54037361412079	398.13161619511925	1326.01738	-271.66258734945876	359.8641172997428	1317.18073	-220.52989498408087	553.831147268277	1063.44262	64.74817411718293	602.6184060359193	1086.98227	65.04830316961637	428.32569609666695	1297.94802	89.95141217326638	446.2941975406377	1067.52679	-236.5675652635658	496.13992026887206	1083.19514	-250.57600956885838	354.4009063086992	1318.36885	-240.91887597512454	735.0714937251444	1024.23463	175.73248567250255	660.1578072944835	1004.11083	120.73395675269046	610.7596946722448	1044.72972	73.52147761241743	590.2911828320869	998.83854	-383.05665992510404	532.766650004934	991.63556	-307.6292263868116	499.24879131535704	1041.83367	-255.8122121755503	27.787772162653724	1217.23005	173.9002867851358	219.72883961186932	816.83324	165.36012590408944	226.5297473995468	814.53126	79.7685880782412	265.12590981328884	839.33329	122.37371380045968	-9.605904320839457	1241.06673	-178.06542566366062	363.37951077323885	1014.06134	-259.14353508877196	387.2086994637011	1010.86827	-176.70380060379836	397.27383819894516	1055.27429	-219.6817322784706	266.03209373529097	767.15493	127.78437720654999	62.408599677504235	408.11959	161.9056545293361	69.87334348285106	403.73839	96.84751899299032	410.16637658818405	964.086	-223.2993638071646	172.0258848309786	625.24872	-223.2544527442473	183.86005464510592	623.24376	-158.8011761277137	-13.361895207611248	361.04029	117.30208138499385	126.98897377430018	267.4015	100.84134542188043	114.69338760715809	267.99556	179.3162453722116	139.32290733833293	254.85197	142.00320583179663	22.25763860839527	342.03036	123.03309907375281	213.52552545474487	201.01524	153.97582119954023	124.00280256321474	550.10006	-184.18503432042021	290.5023772238675	519.5802	-192.3226970712785	269.795715614411	527.52576	-268.5866271085638	301.8490785826548	519.80297	-235.58966032300899	163.24197139607264	548.16936	-194.97094838570328	389.07628489666047	502.9465	-261.02781346115944	
353	5.867	0.0	1249.97763	7.653905517926474E-14	129.37386952314435	1312.42825	123.74032481412732	78.74396608507494	1324.16094	-155.69551004883036	110.19738542146126	1396.26504	105.12318958877928	68.474902650169	1405.91853	-124.83965043342543	-65.67914517479382	1215.59638	69.94765644043528	-86.52680036732446	1220.42312	-44.983045547424545	-54.64437875786794	1297.87377	11.923900356664872	23.54863807204947	1380.15115	0.6482824101595855	112.46882880711757	1464.73052	-11.979585761693759	196.57968695504238	1539.06234	-24.297285542118235	461.14255000093226	1505.79495	-67.13676613348622	374.29943109489625	1636.48827	-51.423311900486354	288.80290480262914	1600.54761	-38.19072449163146	346.437997770873	1451.8097	-49.50261381158548	429.70679906314007	1658.24574	-58.87666833514906	704.2503033351959	1645.25067	-74.00304662235312	604.1958643275442	1623.41894	-1.693954738298899	601.345006237758	1641.09224	-145.4197836816204	595.6421592445918	1688.32006	-66.48262294166513	445.3563183405024	1587.25551	127.1367891624308	402.159222973597	1625.57241	-241.2128069226911	470.15563956885836	1306.41339	115.81684480169683	438.0848948248339	1304.1114	59.830124134919735	398.102475957807	1325.57184	-273.3943149778892	360.50525991351185	1316.51241	-221.78888656602638	555.4170193710214	1063.44262	64.37760306092353	604.0756647059476	1087.05653	64.60347711335699	429.33740110644123	1297.57673	90.27828769406533	448.0014122571511	1067.30402	-237.29680789199622	497.8842513251314	1083.2694	-251.36955958351984	354.73045130381206	1317.62628	-242.52926465004006	736.7415697814038	1024.16037	175.06754909055715	661.7907670109969	1004.03657	120.13332755697607	612.2540833422731	1044.80398	73.01234050967302	592.4385999397184	998.76428	-383.36025546056436	534.8225836798495	991.63556	-308.07138796875694	501.11179185081744	1041.83367	-256.3657637574957	28.78224873971199	1217.74985	173.95998282673366	234.27546587173816	824.259	164.66963014328098	240.9106265664456	822.17979	79.06813470366374	278.77949554258447	848.24419	121.59634961182235	-10.011654846525559	1239.13603	-177.95670513797452	357.0578557998645	1001.8831	-256.36244748696726	381.2556650160129	999.58112	-173.96712248119468	392.134974276943	1043.02179	-217.76117887238024	276.82090921261283	772.94702	127.0679406463431	49.8257047160942	428.54042	164.2443879088007	56.71895090278486	423.19388	99.28501528437201	407.55084343895464	954.284	-221.29388750381864	190.33246504436244	601.78333	-230.60589978666317	201.59513723983355	599.25857	-166.0538602582125	-27.83036174607956	384.57994	121.12454053723117	108.39212173677147	285.37183	103.05197801172095	97.34824767237377	286.78273	181.73508900364996	120.90175134728925	272.52527	144.0580439424361	7.081776539353719	364.15911	126.44714322599015	192.9251426444435	215.86675	155.20121088235084	145.17948697720013	524.10991	-192.79476766129486	312.9599053176555	500.94155	-198.9924967421248	292.83469528037017	508.7386	-275.5209504445514	324.766715634845	502.05541	-242.1653120868253	184.59168238222915	524.03565	-203.1377925406378	413.1687232375351	489.06034	-266.6679607457748	
